<?xml version="1.0" encoding="iso-8859-1"?>
<!-- Generator: Adobe Illustrator 19.0.0, SVG Export Plug-In . SVG Version: 6.00 Build 0)  -->
<svg version="1.1" id="Capa_1" xmlns="http://www.w3.org/2000/svg" xmlns:xlink="http://www.w3.org/1999/xlink" x="0px" y="0px"
	 viewBox="0 0 512 512" style="enable-background:new 0 0 512 512;" xml:space="preserve">
<path style="fill:#7DD49B;" d="M504.5,275.897C504.5,170.99,393.243,85.946,256,85.946S7.5,170.99,7.5,275.897
	S83.08,465.849,256,465.849S504.5,380.805,504.5,275.897z"/>
<path style="opacity:0.1;enable-background:new    ;" d="M256,85.945c-137.243,0-248.5,85.044-248.5,189.952
	c0,104.907,75.58,189.952,248.5,189.952c23.248,0,44.72-1.55,64.501-4.466C93.818,456.885,80.882,307.88,120.349,217.32
	c0.59-1.353,2.138-1.979,3.525-1.473c2.94,1.072,6.245,1.26,9.526,0.283c15.574-4.636,39.073-11.586,53.186-17.275
	c6.232-2.512,13.664,0.422,16.416,6.552c9.294,20.697,21.941,38.913,36.547,50.014c9.781,7.434,23.245,7.434,33.025,0
	c14.611-11.105,27.262-29.331,36.557-50.037c2.749-6.123,10.171-9.043,16.396-6.533c14.115,5.69,37.625,12.644,53.203,17.281
	c9.203,2.74,18.556-3.614,19.528-13.167c1.298-12.763-0.305-26.124-2.043-35.675c-1.483-8.152,4.585-15.71,12.867-15.947
	c10.123-0.291,23.463,0.071,35.17,0.562C398.683,111.515,331.249,85.945,256,85.945z"/>
<path style="fill:#7DD49B;" d="M353.623,75.906c45.934,6.99,70.483,27.396,91.413,49.309c5.471,5.728,1.112,15.211-6.801,14.851
	c-11.901-0.542-26.371-1.001-37.056-0.694c-7.854,0.225-13.609,7.393-12.202,15.124c1.653,9.088,3.178,21.814,1.924,33.956
	c-0.93,9.009-9.833,14.946-18.513,12.362c-14.771-4.397-37.059-10.99-50.443-16.385c-6.006-2.421-12.912,0.308-15.564,6.215
	c-8.813,19.627-20.806,36.902-34.658,47.43c-9.264,7.042-22.059,7.042-31.323,0c-13.851-10.528-25.844-27.803-34.658-47.43
	c-2.653-5.907-9.559-8.636-15.564-6.215c-13.384,5.395-35.672,11.988-50.444,16.385c-8.68,2.584-17.583-3.353-18.513-12.362
	c-1.254-12.141,0.271-24.867,1.924-33.956c1.406-7.731-4.348-14.898-12.202-15.124c-10.685-0.307-25.155,0.152-37.056,0.694
	c-7.913,0.36-12.272-9.123-6.801-14.851c20.931-21.912,45.48-42.319,91.413-49.309L353.623,75.906L353.623,75.906z"/>
<path style="opacity:0.3;enable-background:new    ;" d="M353.623,75.906c45.934,6.99,70.483,27.396,91.413,49.309
	c5.471,5.728,1.112,15.211-6.801,14.851c-11.901-0.542-26.371-1.001-37.056-0.694c-7.854,0.225-13.609,7.393-12.202,15.124
	c1.653,9.088,3.178,21.814,1.924,33.956c-0.93,9.009-9.833,14.946-18.513,12.362c-14.771-4.397-37.059-10.99-50.443-16.385
	c-6.006-2.421-12.912,0.308-15.564,6.215c-8.813,19.627-20.806,36.902-34.658,47.43c-9.264,7.042-22.059,7.042-31.323,0
	c-13.851-10.528-25.844-27.803-34.658-47.43c-2.653-5.907-9.559-8.636-15.564-6.215c-13.384,5.395-35.672,11.988-50.444,16.385
	c-8.68,2.584-17.583-3.353-18.513-12.362c-1.254-12.141,0.271-24.867,1.924-33.956c1.406-7.731-4.348-14.898-12.202-15.124
	c-10.685-0.307-25.155,0.152-37.056,0.694c-7.913,0.36-12.272-9.123-6.801-14.851c20.931-21.912,45.48-42.319,91.413-49.309
	L353.623,75.906L353.623,75.906z"/>
<ellipse style="fill:#88DEDC;" cx="256.06" cy="99.68" rx="108.87" ry="53.52"/>
<path style="opacity:0.1;enable-background:new    ;" d="M273.159,147.072c-60.849,0-110.177-26.589-110.177-59.389
	c0-7.281,2.436-14.255,6.884-20.701c-14.212,9.043-22.673,20.382-22.673,32.694c0,29.561,48.742,53.525,108.868,53.525
	c30.005,0,57.174-5.968,76.866-15.622C315.711,143.584,295.192,147.072,273.159,147.072z"/>
<path style="fill:#F3CE72;" d="M256,382.798c35.46,0,59.82-4.781,64.206-33.02c4.803-30.926-38.161-76.568-64.206-76.568
	s-69.009,45.641-64.206,76.568C196.18,378.017,220.54,382.798,256,382.798z"/>
<path style="opacity:0.08;enable-background:new    ;" d="M279.9,372.026c-35.321,3.134-60.008,0.525-66.873-27.215
	c-5.335-21.558,12.634-52.617,32.789-69.664c-25.645,8.997-58.238,47.482-54.022,74.631c4.386,28.239,28.746,33.02,64.206,33.02
	c27.091,0,47.69-2.804,57.866-16.714C304.47,369.184,292.974,370.866,279.9,372.026z"/>
<path style="opacity:0.15;enable-background:new    ;" d="M396.146,389.76c-4.72,6.963-3.183,16.401,3.504,21.505l21.306,16.264
	c11.126-6.747,21.081-14.266,29.906-22.455l-33.442-20.022C410.202,380.73,400.866,382.796,396.146,389.76z M464.163,263.134
	l39.474-3.048c-1.302-12.072-4.078-23.823-8.195-35.149l-35.489,6.81c-8.262,1.586-13.848,9.346-12.73,17.683
	C448.341,257.768,455.775,263.783,464.163,263.134z M430.731,316.273c-2.603,8,1.494,16.64,9.335,19.688l47.8,18.583
	c5.283-11.28,9.28-23.15,12.027-35.481l-50.03-13.217C441.729,303.697,433.333,308.273,430.731,316.273z"/>
<path style="opacity:0.15;enable-background:new    ;" d="M94.58,385.052l-33.442,20.022c8.825,8.189,18.779,15.708,29.906,22.455
	l21.306-16.264c6.687-5.105,8.225-14.542,3.504-21.505C111.134,382.796,101.798,380.73,94.58,385.052z M64.777,249.43
	c1.118-8.338-4.468-16.098-12.73-17.683l-35.489-6.81c-4.117,11.326-6.893,23.077-8.195,35.149l39.474,3.048
	C56.225,263.783,63.659,257.768,64.777,249.43z M62.137,305.846l-50.03,13.217c2.748,12.332,6.744,24.201,12.027,35.481l47.8-18.583
	c7.841-3.048,11.937-11.689,9.335-19.688C78.667,308.273,70.271,303.697,62.137,305.846z"/>
<path d="M490.792,197.017c-10.803-19.129-25.292-36.603-43.176-52.127c2.507-1.656,4.568-4.007,5.879-6.888
	c2.769-6.087,1.577-13.14-3.034-17.968c-19.694-20.618-44.78-43.203-93.472-51.177c-19.922-18.199-57.256-30.206-100.927-30.206
	c-43.662,0-80.991,12.003-100.915,30.197c-17.389,2.843-32.678,7.674-46.661,14.751c-3.696,1.87-5.176,6.383-3.305,10.078
	c1.321,2.61,3.959,4.115,6.697,4.115c1.139,0,2.296-0.261,3.381-0.811c8.337-4.22,17.235-7.555,26.892-10.084
	c-1.608,4.11-2.458,8.382-2.458,12.778c0,34.22,51.115,61.024,116.368,61.024c65.254,0,116.369-26.805,116.369-61.024
	c0-4.385-0.845-8.648-2.446-12.749c34.304,9.048,53.847,26.947,69.629,43.468c0.159,0.167,0.584,0.611,0.227,1.396
	c-0.374,0.819-1.042,0.785-1.264,0.781c-3.139-0.143-6.146-0.266-9.029-0.37c-0.013-0.001-0.025-0.001-0.038-0.002
	c-11.701-0.424-21.281-0.536-28.544-0.327c-5.914,0.17-11.44,2.9-15.161,7.492c-3.737,4.612-5.271,10.615-4.205,16.472
	c1.493,8.208,3.025,20.396,1.844,31.843c-0.292,2.821-2.036,4.38-3.05,5.058c-1.018,0.679-3.133,1.699-5.864,0.886l-1.227-0.365
	c-14.279-4.249-35.859-10.671-48.553-15.787c-9.815-3.959-20.891,0.479-25.209,10.099c-8.765,19.52-20.255,35.335-32.354,44.532
	c-6.551,4.976-15.696,4.977-22.247,0c-12.099-9.196-23.589-25.012-32.354-44.533c-4.32-9.617-15.396-14.053-25.21-10.098
	c-12.692,5.116-34.273,11.538-48.552,15.787l-1.227,0.365c-2.73,0.813-4.847-0.206-5.864-0.886c-1.014-0.678-2.758-2.236-3.05-5.058
	c-1.182-11.446,0.351-23.635,1.844-31.843c1.065-5.857-0.468-11.859-4.205-16.472c-3.721-4.592-9.247-7.322-15.161-7.492
	c-7.292-0.211-16.916-0.097-28.679,0.332c-0.011,0-0.021,0.001-0.032,0.001c-2.844,0.104-5.809,0.226-8.9,0.366
	c-0.222,0.004-0.891,0.038-1.264-0.781c-0.357-0.785,0.066-1.23,0.226-1.396c5.377-5.629,10.019-10.125,14.609-14.15
	c3.114-2.73,3.425-7.47,0.693-10.584c-2.731-3.114-7.47-3.426-10.584-0.693c-4.93,4.323-9.876,9.11-15.565,15.066
	c-4.611,4.828-5.802,11.882-3.033,17.969c1.299,2.855,3.332,5.187,5.807,6.84C46.528,160.38,32.02,177.87,21.206,197.02
	C7.135,221.937,0,248.476,0,275.897c0,57.165,21.457,105.588,62.053,140.034c21.629,18.354,48.536,32.538,79.974,42.161
	c33.071,10.123,71.418,15.256,113.974,15.256c41.301,0,78.664-4.838,111.051-14.378c3.974-1.171,6.246-5.341,5.075-9.314
	c-1.17-3.974-5.339-6.242-9.314-5.075c-31.01,9.135-66.946,13.767-106.813,13.767c-41.066,0-77.936-4.912-109.584-14.599
	c-29.475-9.023-54.594-22.23-74.658-39.256C34.626,372.987,15,328.52,15,275.897c0-48.654,25.007-94.304,70.449-128.785
	c10.291-0.343,18.906-0.43,25.281-0.244c2.105,0.061,3.371,1.243,3.938,1.942c0.577,0.712,1.486,2.222,1.101,4.342
	c-1.668,9.168-3.37,22.867-2.006,36.069c0.673,6.517,4.185,12.344,9.634,15.986c5.453,3.646,12.19,4.663,18.479,2.793l1.227-0.365
	c14.549-4.329,36.535-10.872,49.88-16.251c2.275-0.918,4.931,0.129,5.92,2.33c9.915,22.084,22.696,39.487,36.961,50.329
	c5.946,4.521,13.073,6.78,20.199,6.78c7.127,0,14.254-2.26,20.201-6.78c14.265-10.843,27.045-28.246,36.96-50.329
	c0.989-2.201,3.645-3.248,5.919-2.331c13.346,5.38,35.332,11.923,49.881,16.252l1.227,0.365c6.287,1.87,13.024,0.854,18.479-2.793
	c5.449-3.643,8.961-9.47,9.634-15.986c1.364-13.202-0.338-26.901-2.006-36.068c-0.386-2.121,0.523-3.631,1.101-4.343
	c0.566-0.699,1.832-1.882,3.938-1.942c6.347-0.184,14.918-0.098,25.152,0.24C471.992,181.59,497,227.241,497,275.897
	c0,33.707-7.948,63.949-23.623,89.886c-16.605,27.477-41.478,49.299-73.926,64.859c-3.734,1.791-5.311,6.271-3.52,10.006
	c1.29,2.689,3.973,4.259,6.768,4.259c1.088,0,2.192-0.238,3.238-0.739C474.333,411.369,512,351.609,512,275.897
	C512,248.474,504.864,221.935,490.792,197.017z M329.734,130.794c-19.553,9.613-45.718,14.907-73.673,14.907
	s-54.119-5.294-73.672-14.907c-17.602-8.654-27.696-19.995-27.696-31.117c0-11.122,10.095-22.464,27.696-31.118
	c19.553-9.613,45.717-14.907,73.672-14.907s54.12,5.294,73.673,14.907c17.602,8.654,27.696,19.996,27.696,31.118
	C357.431,110.799,347.336,122.14,329.734,130.794z M373.275,269.775c-4.143,0-7.5,3.357-7.5,7.5v19.468c0,4.143,3.357,7.5,7.5,7.5
	s7.5-3.357,7.5-7.5v-19.468C380.775,273.133,377.418,269.775,373.275,269.775z M131.225,277.275v19.468c0,4.143,3.357,7.5,7.5,7.5
	s7.5-3.357,7.5-7.5v-19.468c0-4.143-3.357-7.5-7.5-7.5S131.225,273.133,131.225,277.275z M282.897,332.749
	c-3.123-2.722-7.86-2.397-10.582,0.727c-4.118,4.726-10.065,7.436-16.315,7.436s-12.196-2.71-16.314-7.436
	c-2.723-3.122-7.46-3.447-10.582-0.727c-3.123,2.722-3.447,7.46-0.727,10.582c6.969,7.995,17.036,12.58,27.623,12.58
	s20.654-4.585,27.623-12.58C286.344,340.21,286.02,335.471,282.897,332.749z M256,265.71c-11.733,0-31.09,7.96-50.229,30.301
	c-16.096,18.789-23.892,38.806-21.389,54.918c5.644,36.327,39.926,39.369,71.617,39.369s65.974-3.042,71.617-39.369
	c2.503-16.112-5.293-36.129-21.389-54.918C287.09,273.671,267.733,265.71,256,265.71z M312.795,348.626
	c-3.098,19.941-17.429,26.672-56.795,26.672s-53.697-6.73-56.795-26.672c-1.775-11.432,5.105-27.854,17.958-42.856
	c12.64-14.755,28.61-25.06,38.837-25.06c10.227,0,26.197,10.305,38.837,25.06C307.69,320.772,314.57,337.194,312.795,348.626z"/>
<g>
</g>
<g>
</g>
<g>
</g>
<g>
</g>
<g>
</g>
<g>
</g>
<g>
</g>
<g>
</g>
<g>
</g>
<g>
</g>
<g>
</g>
<g>
</g>
<g>
</g>
<g>
</g>
<g>
</g>
</svg>
